<svg xmlns="http://www.w3.org/2000/svg" version="1.1" xmlns:xlink="http://www.w3.org/1999/xlink" width="24px" height="24px"><svg xmlns="http://www.w3.org/2000/svg" version="1.1" xmlns:xlink="http://www.w3.org/1999/xlink" width="24px" height="24px"><svg width="24px" height="24px" stroke-width="1.5" viewBox="0 0 24 24" fill="none" xmlns="http://www.w3.org/2000/svg" color="#000000"><path d="M9 19L3.78974 20.7368C3.40122 20.8663 3 20.5771 3 20.1675L3 5.43246C3 5.1742 3.16526 4.94491 3.41026 4.86325L9 3M9 19L15 21M9 19L9 3M15 21L20.5897 19.1368C20.8347 19.0551 21 18.8258 21 18.5675L21 3.83246C21 3.42292 20.5988 3.13374 20.2103 3.26325L15 5M15 21L15 5M15 5L9 3" stroke="#000000" stroke-width="1.5" stroke-linecap="round" stroke-linejoin="round"></path></svg></svg><style>@media (prefers-color-scheme: light) { :root { filter: none; } }
@media (prefers-color-scheme: dark) { :root { filter: none; } }
</style></svg>